<mxfile host="app.diagrams.net" modified="2022-10-21T05:47:14.253Z" agent="5.0 (Windows NT 10.0; Win64; x64) AppleWebKit/537.36 (KHTML, like Gecko) Chrome/106.0.0.0 Safari/537.36" etag="pIfaD7Ucis32y6M2DKg9" version="20.4.2" type="github">
  <diagram id="e23AtxaQw4t8wlW2dQo-" name="第 1 页">
    <mxGraphModel dx="807" dy="777" grid="1" gridSize="10" guides="1" tooltips="1" connect="1" arrows="1" fold="1" page="1" pageScale="1" pageWidth="827" pageHeight="1169" math="0" shadow="0">
      <root>
        <mxCell id="0" />
        <mxCell id="1" parent="0" />
      </root>
    </mxGraphModel>
  </diagram>
</mxfile>
